<?xml version="1.0" encoding="utf-8"?>
<!-- Generator: Adobe Illustrator 17.0.0, SVG Export Plug-In . SVG Version: 6.00 Build 0)  -->
<!DOCTYPE svg PUBLIC "-//W3C//DTD SVG 1.1//EN" "http://www.w3.org/Graphics/SVG/1.1/DTD/svg11.dtd">
<svg version="1.1" id="Calque_1" xmlns="http://www.w3.org/2000/svg" xmlns:xlink="http://www.w3.org/1999/xlink" x="0px" y="0px"
	 width="2000px" height="959.197px" viewBox="0 0 2000 959.197" enable-background="new 0 0 2000 959.197" xml:space="preserve">
<rect x="0" y="0" fill="#F5F5F5" width="2000" height="959.197"/>
<rect x="0" y="172.417" fill="#FFFFFF" width="2000" height="19.423"/>
<rect x="0" y="364.256" fill="#FFFFFF" width="2000" height="19.423"/>
<rect x="0" y="556.096" fill="#FFFFFF" width="2000" height="19.423"/>
<rect x="0" y="747.935" fill="#FFFFFF" width="2000" height="19.423"/>
<rect x="0" y="939.774" fill="#FFFFFF" width="2000" height="19.423"/>
<rect x="234.831" y="31.523" fill="#FFFFFF" width="29.278" height="139.173"/>
<rect x="67.374" y="22.694" fill="#FFFFFF" width="16.455" height="148.002"/>
<rect x="151.605" y="31.523" fill="#FFFFFF" width="15.7" height="139.173"/>
<rect x="50.749" y="45.258" fill="#FFFFFF" width="15.7" height="125.439"/>
<rect x="23.09" y="45.258" fill="#FFFFFF" width="11.426" height="125.439"/>
<rect x="10.519" y="39.617" fill="#FFFFFF" width="11.426" height="131.08"/>
<rect x="0" y="48.936" fill="#FFFFFF" width="9.121" height="121.76"/>
<rect x="36.417" y="48.446" fill="#FFFFFF" width="13.186" height="122.25"/>
<rect x="90.757" y="42.56" fill="#FFFFFF" width="6.146" height="128.136"/>
<rect x="211.448" y="48.446" fill="#FFFFFF" width="21.484" height="122.25"/>
<rect x="394.847" y="48.446" fill="#FFFFFF" width="21.484" height="122.25"/>
<rect x="548.253" y="48.446" fill="#FFFFFF" width="21.484" height="122.25"/>
<rect x="417.464" y="53.242" fill="#FFFFFF" width="15.092" height="117.454"/>
<rect x="325.027" y="46.048" fill="#FFFFFF" width="16.567" height="124.648"/>
<rect x="343.22" y="20.629" fill="#FFFFFF" width="14.108" height="150.067"/>
<rect x="433.69" y="20.629" fill="#FFFFFF" width="11.158" height="150.067"/>
<rect x="485.809" y="20.629" fill="#FFFFFF" width="11.158" height="150.067"/>
<rect x="498.592" y="27.823" fill="#FFFFFF" width="7.225" height="142.873"/>
<rect x="373.212" y="32.619" fill="#FFFFFF" width="8.208" height="138.077"/>
<rect x="383.046" y="24.466" fill="#FFFFFF" width="10.666" height="146.23"/>
<rect x="446.965" y="27.343" fill="#FFFFFF" width="18.042" height="143.353"/>
<rect x="466.633" y="32.619" fill="#FFFFFF" width="18.042" height="138.077"/>
<rect x="779.837" y="29.741" fill="#FFFFFF" width="28.367" height="140.955"/>
<rect x="913.084" y="21.588" fill="#FFFFFF" width="14.6" height="149.108"/>
<rect x="810.321" y="38.854" fill="#FFFFFF" width="17.058" height="131.842"/>
<polygon fill="#FFFFFF" points="779.423,54.964 760.265,51.33 737.187,167.096 756.345,170.73 "/>
<rect x="506.951" y="32.619" fill="#FFFFFF" width="9.191" height="138.077"/>
<rect x="865.882" y="37.415" fill="#FFFFFF" width="9.191" height="133.281"/>
<rect x="518.26" y="24.946" fill="#FFFFFF" width="9.191" height="145.751"/>
<polygon fill="#FFFFFF" points="763.796,35.11 748.751,31.149 711.22,166.77 726.264,170.731 "/>
<polygon fill="#FFFFFF" points="398.223,246.77 417.381,243.136 440.459,358.902 421.301,362.536 "/>
<polygon fill="#FFFFFF" points="413.85,226.916 428.895,222.955 466.426,358.576 451.381,362.537 "/>
<rect x="529.077" y="34.537" fill="#FFFFFF" width="5.75" height="136.159"/>
<polygon fill="#FFFFFF" points="540.527,34.425 534.783,34.689 541.369,170.696 547.112,170.432 "/>
<rect x="304.868" y="52.283" fill="#FFFFFF" width="19.025" height="118.414"/>
<rect x="578.737" y="48.925" fill="#FFFFFF" width="19.025" height="121.771"/>
<rect x="622.006" y="53.242" fill="#FFFFFF" width="19.025" height="117.454"/>
<rect x="599.88" y="46.048" fill="#FFFFFF" width="20.5" height="124.648"/>
<rect x="829.497" y="48.925" fill="#FFFFFF" width="20.5" height="121.771"/>
<rect x="876.699" y="48.925" fill="#FFFFFF" width="20.5" height="121.771"/>
<rect x="898.333" y="44.609" fill="#FFFFFF" width="12.633" height="126.087"/>
<rect x="934.718" y="44.609" fill="#FFFFFF" width="7.225" height="126.087"/>
<rect x="943.568" y="49.885" fill="#FFFFFF" width="9.683" height="120.812"/>
<rect x="928.818" y="53.242" fill="#FFFFFF" width="4.274" height="117.454"/>
<rect x="852.115" y="48.925" fill="#FFFFFF" width="11.65" height="121.771"/>
<rect x="71.728" y="413.42" fill="#FFFFFF" width="28.367" height="140.955"/>
<rect x="204.975" y="405.267" fill="#FFFFFF" width="14.6" height="149.108"/>
<rect x="102.212" y="422.533" fill="#FFFFFF" width="17.058" height="131.842"/>
<polygon fill="#FFFFFF" points="71.314,438.643 52.156,435.009 29.078,550.775 48.236,554.408 "/>
<rect x="157.773" y="421.094" fill="#FFFFFF" width="9.191" height="133.281"/>
<polygon fill="#FFFFFF" points="55.687,418.789 40.642,414.828 3.111,550.448 18.155,554.41 "/>
<rect x="121.388" y="432.604" fill="#FFFFFF" width="20.5" height="121.771"/>
<rect x="168.59" y="432.604" fill="#FFFFFF" width="20.5" height="121.771"/>
<rect x="190.224" y="428.288" fill="#FFFFFF" width="12.633" height="126.087"/>
<rect x="226.609" y="428.288" fill="#FFFFFF" width="7.225" height="126.087"/>
<rect x="235.459" y="433.563" fill="#FFFFFF" width="9.683" height="120.812"/>
<rect x="220.709" y="436.921" fill="#FFFFFF" width="4.274" height="117.454"/>
<rect x="144.006" y="432.604" fill="#FFFFFF" width="11.65" height="121.771"/>
<rect x="358.462" y="52.283" fill="#FFFFFF" width="6.241" height="118.414"/>
<rect x="365.837" y="43.17" fill="#FFFFFF" width="6.241" height="127.526"/>
<rect x="20.159" y="237.887" fill="#FFFFFF" width="16.567" height="124.648"/>
<rect x="38.351" y="212.469" fill="#FFFFFF" width="14.108" height="150.067"/>
<polygon fill="#FFFFFF" points="199.946,222.122 177.754,219.956 163.351,360.37 185.543,362.536 "/>
<polygon fill="#FFFFFF" points="176.572,229.959 162.622,227.904 142.092,360.48 156.042,362.536 "/>
<rect x="68.344" y="224.459" fill="#FFFFFF" width="8.208" height="138.077"/>
<rect x="78.178" y="216.305" fill="#FFFFFF" width="10.666" height="146.23"/>
<rect x="0" y="244.122" fill="#FFFFFF" width="19.025" height="118.414"/>
<rect x="197.986" y="244.122" fill="#FFFFFF" width="15.419" height="118.414"/>
<rect x="214.375" y="237.727" fill="#FFFFFF" width="20.664" height="124.808"/>
<rect x="236.337" y="231.333" fill="#FFFFFF" width="16.403" height="131.203"/>
<rect x="254.038" y="221.421" fill="#FFFFFF" width="30.17" height="141.115"/>
<rect x="349.097" y="229.734" fill="#FFFFFF" width="5.586" height="132.801"/>
<rect x="355.653" y="215.666" fill="#FFFFFF" width="8.536" height="146.87"/>
<rect x="385.154" y="208.312" fill="#FFFFFF" width="12.469" height="154.224"/>
<rect x="365.159" y="223.339" fill="#FFFFFF" width="5.586" height="139.196"/>
<rect x="371.715" y="218.863" fill="#FFFFFF" width="12.469" height="143.672"/>
<rect x="284.85" y="239.966" fill="#FFFFFF" width="20.992" height="122.57"/>
<rect x="314.679" y="239.966" fill="#FFFFFF" width="20.992" height="122.57"/>
<rect x="306.484" y="232.292" fill="#FFFFFF" width="7.225" height="130.244"/>
<polygon fill="#FFFFFF" points="348.777,232.392 341.558,232.116 336.319,362.259 343.538,362.536 "/>
<polygon fill="#FFFFFF" points="876.855,246.77 896.013,243.136 919.092,358.902 899.934,362.536 "/>
<polygon fill="#FFFFFF" points="892.483,226.916 907.527,222.955 945.059,358.576 930.014,362.537 "/>
<rect x="827.73" y="229.734" fill="#FFFFFF" width="5.586" height="132.801"/>
<rect x="834.286" y="215.666" fill="#FFFFFF" width="8.536" height="146.87"/>
<rect x="863.787" y="208.312" fill="#FFFFFF" width="12.469" height="154.224"/>
<rect x="843.792" y="223.339" fill="#FFFFFF" width="5.586" height="139.196"/>
<rect x="850.347" y="218.863" fill="#FFFFFF" width="12.469" height="143.672"/>
<polygon fill="#FFFFFF" points="827.409,232.392 820.19,232.116 814.952,362.259 822.171,362.536 "/>
<polygon fill="#FFFFFF" points="159.838,245.105 141.369,240.648 111.584,358.079 130.052,362.536 "/>
<polygon fill="#FFFFFF" points="139.069,248.103 120.684,243.332 89.471,357.764 107.856,362.536 "/>
<rect x="53.594" y="244.122" fill="#FFFFFF" width="6.241" height="118.414"/>
<rect x="60.969" y="235.01" fill="#FFFFFF" width="6.241" height="127.526"/>
<rect x="570.379" y="43.17" fill="#FFFFFF" width="6.241" height="127.526"/>
<rect x="717.346" y="623.964" fill="#FFFFFF" width="21.484" height="122.25"/>
<rect x="563.939" y="623.964" fill="#FFFFFF" width="21.484" height="122.25"/>
<rect x="701.12" y="628.76" fill="#FFFFFF" width="15.092" height="117.454"/>
<rect x="792.082" y="621.566" fill="#FFFFFF" width="16.567" height="124.648"/>
<rect x="776.348" y="596.147" fill="#FFFFFF" width="14.108" height="150.067"/>
<rect x="688.828" y="596.147" fill="#FFFFFF" width="11.158" height="150.067"/>
<rect x="636.709" y="596.147" fill="#FFFFFF" width="11.158" height="150.067"/>
<rect x="627.859" y="603.341" fill="#FFFFFF" width="7.225" height="142.873"/>
<rect x="752.255" y="608.137" fill="#FFFFFF" width="8.208" height="138.077"/>
<rect x="739.963" y="599.984" fill="#FFFFFF" width="10.666" height="146.23"/>
<rect x="668.669" y="602.862" fill="#FFFFFF" width="18.042" height="143.353"/>
<rect x="649.001" y="608.137" fill="#FFFFFF" width="18.042" height="138.077"/>
<rect x="617.533" y="608.137" fill="#FFFFFF" width="9.191" height="138.077"/>
<rect x="606.224" y="600.464" fill="#FFFFFF" width="9.191" height="145.751"/>
<rect x="598.849" y="610.056" fill="#FFFFFF" width="5.75" height="136.159"/>
<polygon fill="#FFFFFF" points="593.149,609.943 598.892,610.207 592.307,746.214 586.563,745.95 "/>
<rect x="809.783" y="627.801" fill="#FFFFFF" width="19.025" height="118.414"/>
<rect x="535.913" y="624.444" fill="#FFFFFF" width="19.025" height="121.771"/>
<rect x="492.645" y="628.76" fill="#FFFFFF" width="19.025" height="117.454"/>
<rect x="513.296" y="621.566" fill="#FFFFFF" width="20.5" height="124.648"/>
<rect x="768.973" y="627.801" fill="#FFFFFF" width="6.241" height="118.414"/>
<rect x="761.597" y="618.689" fill="#FFFFFF" width="6.241" height="127.526"/>
<rect x="557.056" y="618.689" fill="#FFFFFF" width="6.241" height="127.526"/>
<rect x="565.697" y="232.66" fill="#FFFFFF" width="21.484" height="129.877"/>
<rect x="719.103" y="232.66" fill="#FFFFFF" width="21.484" height="129.877"/>
<rect x="588.315" y="237.456" fill="#FFFFFF" width="15.092" height="125.081"/>
<rect x="495.878" y="230.262" fill="#FFFFFF" width="16.567" height="132.275"/>
<rect x="514.07" y="204.843" fill="#FFFFFF" width="14.108" height="157.694"/>
<rect x="604.54" y="204.843" fill="#FFFFFF" width="11.158" height="157.694"/>
<rect x="656.659" y="204.843" fill="#FFFFFF" width="11.158" height="157.694"/>
<rect x="669.443" y="212.037" fill="#FFFFFF" width="7.225" height="150.5"/>
<rect x="544.063" y="216.833" fill="#FFFFFF" width="8.208" height="145.704"/>
<rect x="553.897" y="208.68" fill="#FFFFFF" width="10.666" height="153.857"/>
<rect x="617.816" y="211.557" fill="#FFFFFF" width="18.042" height="150.98"/>
<rect x="637.483" y="216.833" fill="#FFFFFF" width="18.042" height="145.704"/>
<rect x="677.802" y="216.833" fill="#FFFFFF" width="9.191" height="145.704"/>
<rect x="689.111" y="209.159" fill="#FFFFFF" width="9.191" height="153.378"/>
<rect x="699.928" y="218.751" fill="#FFFFFF" width="5.75" height="143.786"/>
<rect x="708.924" y="218.695" transform="matrix(0.9989 -0.046 0.046 0.9989 -12.6189 33.0655)" fill="#FFFFFF" width="5.749" height="143.785"/>
<rect x="475.719" y="236.496" fill="#FFFFFF" width="19.025" height="126.04"/>
<rect x="749.588" y="233.139" fill="#FFFFFF" width="19.025" height="129.398"/>
<rect x="792.856" y="237.456" fill="#FFFFFF" width="19.025" height="125.081"/>
<rect x="770.73" y="230.262" fill="#FFFFFF" width="20.5" height="132.275"/>
<rect x="529.312" y="236.496" fill="#FFFFFF" width="6.241" height="126.04"/>
<rect x="536.688" y="227.384" fill="#FFFFFF" width="6.241" height="135.153"/>
<polygon fill="#FFFFFF" points="823.955,438.609 843.113,434.976 866.192,550.741 847.034,554.375 "/>
<polygon fill="#FFFFFF" points="839.583,418.755 854.628,414.794 892.159,550.415 877.114,554.376 "/>
<polygon fill="#FFFFFF" points="625.678,413.962 603.486,411.796 589.083,552.209 611.275,554.375 "/>
<polygon fill="#FFFFFF" points="602.304,421.798 588.354,419.743 567.824,552.32 581.774,554.375 "/>
<rect x="623.718" y="435.961" fill="#FFFFFF" width="15.419" height="118.414"/>
<rect x="640.108" y="429.567" fill="#FFFFFF" width="20.664" height="124.808"/>
<rect x="662.07" y="423.172" fill="#FFFFFF" width="16.403" height="131.203"/>
<rect x="679.771" y="413.26" fill="#FFFFFF" width="30.17" height="141.115"/>
<rect x="774.83" y="421.574" fill="#FFFFFF" width="5.586" height="132.801"/>
<rect x="781.386" y="407.505" fill="#FFFFFF" width="8.536" height="146.87"/>
<rect x="810.887" y="400.151" fill="#FFFFFF" width="12.469" height="154.224"/>
<rect x="790.892" y="415.179" fill="#FFFFFF" width="5.586" height="139.196"/>
<rect x="797.447" y="410.703" fill="#FFFFFF" width="12.469" height="143.672"/>
<rect x="710.583" y="431.805" fill="#FFFFFF" width="20.992" height="122.57"/>
<rect x="740.412" y="431.805" fill="#FFFFFF" width="20.992" height="122.57"/>
<rect x="732.217" y="424.131" fill="#FFFFFF" width="7.225" height="130.244"/>
<polygon fill="#FFFFFF" points="774.509,424.232 767.29,423.955 762.052,554.099 769.271,554.375 "/>
<polygon fill="#FFFFFF" points="585.57,436.944 567.102,432.487 537.316,549.918 555.784,554.375 "/>
<polygon fill="#FFFFFF" points="564.802,439.942 546.416,435.171 515.204,549.604 533.589,554.375 "/>
<rect x="921.61" y="422.101" fill="#FFFFFF" width="16.567" height="132.275"/>
<rect x="939.803" y="396.682" fill="#FFFFFF" width="14.108" height="157.694"/>
<rect x="969.796" y="408.672" fill="#FFFFFF" width="8.208" height="145.704"/>
<rect x="901.451" y="428.336" fill="#FFFFFF" width="19.025" height="126.04"/>
<rect x="955.045" y="428.336" fill="#FFFFFF" width="6.241" height="126.04"/>
<rect x="962.42" y="419.224" fill="#FFFFFF" width="6.241" height="135.153"/>
<rect x="741.229" y="227.384" fill="#FFFFFF" width="6.241" height="135.153"/>
<polygon fill="#FFFFFF" points="362.722,630.448 343.565,626.814 320.486,742.579 339.644,746.213 "/>
<polygon fill="#FFFFFF" points="347.095,610.594 332.05,606.632 294.519,742.253 309.564,746.214 "/>
<rect x="406.262" y="613.412" fill="#FFFFFF" width="5.586" height="132.801"/>
<rect x="396.757" y="599.344" fill="#FFFFFF" width="8.536" height="146.87"/>
<rect x="363.322" y="591.99" fill="#FFFFFF" width="12.469" height="154.224"/>
<rect x="390.201" y="607.017" fill="#FFFFFF" width="5.586" height="139.196"/>
<rect x="376.761" y="602.541" fill="#FFFFFF" width="12.469" height="143.672"/>
<polygon fill="#FFFFFF" points="412.168,616.07 419.387,615.793 424.626,745.937 417.407,746.213 "/>
<rect x="89.979" y="616.337" fill="#FFFFFF" width="21.484" height="129.877"/>
<rect x="243.385" y="616.337" fill="#FFFFFF" width="21.484" height="129.877"/>
<rect x="112.596" y="621.133" fill="#FFFFFF" width="15.092" height="125.081"/>
<rect x="20.159" y="613.939" fill="#FFFFFF" width="16.567" height="132.275"/>
<rect x="38.351" y="588.521" fill="#FFFFFF" width="14.108" height="157.694"/>
<rect x="128.822" y="588.521" fill="#FFFFFF" width="11.158" height="157.694"/>
<rect x="180.941" y="588.521" fill="#FFFFFF" width="11.158" height="157.694"/>
<rect x="193.724" y="595.715" fill="#FFFFFF" width="7.225" height="150.5"/>
<rect x="68.344" y="600.51" fill="#FFFFFF" width="8.208" height="145.704"/>
<rect x="78.178" y="592.357" fill="#FFFFFF" width="10.666" height="153.857"/>
<rect x="142.097" y="595.235" fill="#FFFFFF" width="18.042" height="150.98"/>
<rect x="161.765" y="600.51" fill="#FFFFFF" width="18.042" height="145.704"/>
<rect x="202.083" y="600.51" fill="#FFFFFF" width="9.191" height="145.704"/>
<rect x="213.392" y="592.837" fill="#FFFFFF" width="9.191" height="153.378"/>
<rect x="224.209" y="602.429" fill="#FFFFFF" width="5.75" height="143.786"/>
<rect x="233.205" y="602.373" transform="matrix(0.9989 -0.046 0.046 0.9989 -30.7802 11.579)" fill="#FFFFFF" width="5.749" height="143.785"/>
<rect x="0" y="620.174" fill="#FFFFFF" width="19.025" height="126.04"/>
<rect x="470.965" y="616.817" fill="#FFFFFF" width="19.025" height="129.398"/>
<rect x="427.696" y="621.133" fill="#FFFFFF" width="19.025" height="125.081"/>
<rect x="448.347" y="613.939" fill="#FFFFFF" width="20.5" height="132.275"/>
<rect x="53.594" y="620.174" fill="#FFFFFF" width="6.241" height="126.04"/>
<rect x="60.969" y="611.062" fill="#FFFFFF" width="6.241" height="135.153"/>
<rect x="265.511" y="611.062" fill="#FFFFFF" width="6.241" height="135.153"/>
<rect x="139.034" y="48.446" fill="#FFFFFF" width="11.426" height="122.25"/>
<rect x="84.975" y="51.634" fill="#FFFFFF" width="4.889" height="119.062"/>
<rect x="123.947" y="67.821" fill="#FFFFFF" width="13.94" height="102.875"/>
<rect x="97.546" y="48.691" fill="#FFFFFF" width="25.004" height="122.005"/>
<rect x="167.949" y="58.747" fill="#FFFFFF" width="6.649" height="111.95"/>
<polygon fill="#FFFFFF" points="200.853,68.648 175.171,70.567 183.035,170.696 208.718,168.777 "/>
<rect x="939.692" y="607.041" fill="#FFFFFF" width="29.278" height="139.173"/>
<rect x="856.466" y="607.041" fill="#FFFFFF" width="15.7" height="139.173"/>
<rect x="916.308" y="623.964" fill="#FFFFFF" width="21.484" height="122.25"/>
<rect x="843.894" y="623.964" fill="#FFFFFF" width="11.426" height="122.25"/>
<rect x="828.808" y="643.339" fill="#FFFFFF" width="13.94" height="102.875"/>
<rect x="872.809" y="634.265" fill="#FFFFFF" width="6.649" height="111.95"/>
<polygon fill="#FFFFFF" points="905.713,644.166 880.031,646.085 887.895,746.214 913.578,744.295 "/>
<rect x="479.974" y="415.202" fill="#FFFFFF" width="29.278" height="139.173"/>
<rect x="312.516" y="406.373" fill="#FFFFFF" width="16.455" height="148.002"/>
<rect x="396.748" y="415.202" fill="#FFFFFF" width="15.7" height="139.173"/>
<rect x="295.891" y="428.936" fill="#FFFFFF" width="15.7" height="125.439"/>
<rect x="268.233" y="428.936" fill="#FFFFFF" width="11.426" height="125.439"/>
<rect x="255.661" y="423.295" fill="#FFFFFF" width="11.426" height="131.08"/>
<rect x="245.142" y="432.615" fill="#FFFFFF" width="9.121" height="121.76"/>
<rect x="281.559" y="432.125" fill="#FFFFFF" width="13.186" height="122.25"/>
<rect x="335.9" y="426.239" fill="#FFFFFF" width="6.146" height="128.136"/>
<rect x="456.59" y="432.125" fill="#FFFFFF" width="21.484" height="122.25"/>
<rect x="384.176" y="432.125" fill="#FFFFFF" width="11.426" height="122.25"/>
<rect x="330.117" y="435.313" fill="#FFFFFF" width="4.889" height="119.062"/>
<rect x="369.09" y="451.5" fill="#FFFFFF" width="13.94" height="102.875"/>
<rect x="342.689" y="432.37" fill="#FFFFFF" width="25.004" height="122.005"/>
<rect x="413.091" y="442.425" fill="#FFFFFF" width="6.649" height="111.95"/>
<polygon fill="#FFFFFF" points="445.996,452.327 420.313,454.246 428.178,554.375 453.86,552.456 "/>
<rect x="881.019" y="797.099" fill="#FFFFFF" width="28.367" height="140.955"/>
<rect x="761.54" y="788.946" fill="#FFFFFF" width="14.6" height="149.108"/>
<rect x="861.844" y="806.212" fill="#FFFFFF" width="17.058" height="131.842"/>
<polygon fill="#FFFFFF" points="909.8,822.322 928.958,818.688 952.036,934.454 932.878,938.087 "/>
<rect x="814.15" y="804.773" fill="#FFFFFF" width="9.191" height="133.281"/>
<polygon fill="#FFFFFF" points="925.427,802.468 940.472,798.506 978.004,934.127 962.959,938.089 "/>
<rect x="839.226" y="816.283" fill="#FFFFFF" width="20.5" height="121.771"/>
<rect x="792.024" y="816.283" fill="#FFFFFF" width="20.5" height="121.771"/>
<rect x="778.257" y="811.967" fill="#FFFFFF" width="12.633" height="126.087"/>
<rect x="747.281" y="811.967" fill="#FFFFFF" width="7.225" height="126.087"/>
<rect x="735.972" y="817.242" fill="#FFFFFF" width="9.683" height="120.812"/>
<rect x="756.131" y="820.6" fill="#FFFFFF" width="4.274" height="117.454"/>
<rect x="825.459" y="816.283" fill="#FFFFFF" width="11.65" height="121.771"/>
<polygon fill="#FFFFFF" points="157.159,822.288 138.001,818.655 114.923,934.42 134.081,938.054 "/>
<polygon fill="#FFFFFF" points="141.532,802.434 126.487,798.473 88.956,934.094 104,938.055 "/>
<polygon fill="#FFFFFF" points="355.436,797.64 377.628,795.475 392.031,935.888 369.839,938.054 "/>
<polygon fill="#FFFFFF" points="378.81,805.477 392.76,803.422 413.29,935.999 399.34,938.054 "/>
<rect x="341.977" y="819.64" fill="#FFFFFF" width="15.419" height="118.414"/>
<rect x="320.343" y="813.246" fill="#FFFFFF" width="20.664" height="124.808"/>
<rect x="302.642" y="806.851" fill="#FFFFFF" width="16.403" height="131.203"/>
<rect x="271.174" y="796.939" fill="#FFFFFF" width="30.17" height="141.115"/>
<rect x="200.699" y="805.252" fill="#FFFFFF" width="5.586" height="132.801"/>
<rect x="191.193" y="791.184" fill="#FFFFFF" width="8.536" height="146.87"/>
<rect x="157.758" y="783.83" fill="#FFFFFF" width="12.469" height="154.224"/>
<rect x="184.637" y="798.858" fill="#FFFFFF" width="5.586" height="139.196"/>
<rect x="171.198" y="794.381" fill="#FFFFFF" width="12.469" height="143.672"/>
<rect x="249.54" y="815.484" fill="#FFFFFF" width="20.992" height="122.57"/>
<rect x="219.711" y="815.484" fill="#FFFFFF" width="20.992" height="122.57"/>
<rect x="241.673" y="807.81" fill="#FFFFFF" width="7.225" height="130.244"/>
<polygon fill="#FFFFFF" points="206.605,807.911 213.824,807.634 219.063,937.777 211.844,938.054 "/>
<polygon fill="#FFFFFF" points="395.544,820.623 414.012,816.166 443.798,933.597 425.33,938.054 "/>
<polygon fill="#FFFFFF" points="416.313,823.621 434.698,818.85 465.911,933.283 447.525,938.054 "/>
<rect x="42.937" y="805.78" fill="#FFFFFF" width="16.567" height="132.275"/>
<rect x="27.203" y="780.361" fill="#FFFFFF" width="14.108" height="157.694"/>
<rect x="3.111" y="792.351" fill="#FFFFFF" width="8.208" height="145.704"/>
<rect x="60.638" y="812.015" fill="#FFFFFF" width="19.025" height="126.04"/>
<rect x="19.828" y="812.015" fill="#FFFFFF" width="6.241" height="126.04"/>
<rect x="12.453" y="802.902" fill="#FFFFFF" width="6.241" height="135.153"/>
<rect x="471.863" y="798.881" fill="#FFFFFF" width="29.278" height="139.173"/>
<rect x="652.143" y="790.052" fill="#FFFFFF" width="16.455" height="148.002"/>
<rect x="568.666" y="798.881" fill="#FFFFFF" width="15.7" height="139.173"/>
<rect x="669.523" y="812.615" fill="#FFFFFF" width="15.7" height="125.439"/>
<rect x="701.456" y="812.615" fill="#FFFFFF" width="11.426" height="125.439"/>
<rect x="714.027" y="806.974" fill="#FFFFFF" width="11.426" height="131.08"/>
<rect x="726.851" y="816.294" fill="#FFFFFF" width="9.121" height="121.76"/>
<rect x="686.369" y="815.804" fill="#FFFFFF" width="13.186" height="122.25"/>
<rect x="639.069" y="809.917" fill="#FFFFFF" width="6.146" height="128.136"/>
<rect x="503.041" y="815.804" fill="#FFFFFF" width="21.484" height="122.25"/>
<rect x="585.512" y="815.804" fill="#FFFFFF" width="11.426" height="122.25"/>
<rect x="646.109" y="818.992" fill="#FFFFFF" width="4.889" height="119.062"/>
<rect x="598.084" y="835.179" fill="#FFFFFF" width="13.94" height="102.875"/>
<rect x="613.422" y="816.049" fill="#FFFFFF" width="25.004" height="122.005"/>
<rect x="561.374" y="826.104" fill="#FFFFFF" width="6.649" height="111.95"/>
<polygon fill="#FFFFFF" points="535.119,836.005 560.801,837.925 552.937,938.054 527.254,936.135 "/>
<rect x="1210.868" y="31.523" fill="#FFFFFF" width="29.278" height="139.173"/>
<rect x="1043.411" y="22.694" fill="#FFFFFF" width="16.455" height="148.002"/>
<rect x="1127.642" y="31.523" fill="#FFFFFF" width="15.7" height="139.173"/>
<rect x="1026.785" y="45.258" fill="#FFFFFF" width="15.7" height="125.439"/>
<rect x="999.127" y="45.258" fill="#FFFFFF" width="11.426" height="125.439"/>
<rect x="986.555" y="39.617" fill="#FFFFFF" width="11.426" height="131.08"/>
<rect x="976.037" y="48.936" fill="#FFFFFF" width="9.121" height="121.76"/>
<rect x="1012.453" y="48.446" fill="#FFFFFF" width="13.186" height="122.25"/>
<rect x="1066.794" y="42.56" fill="#FFFFFF" width="6.146" height="128.136"/>
<rect x="1187.484" y="48.446" fill="#FFFFFF" width="21.484" height="122.25"/>
<rect x="1301.064" y="46.048" fill="#FFFFFF" width="16.567" height="124.648"/>
<rect x="1319.256" y="20.629" fill="#FFFFFF" width="14.108" height="150.067"/>
<rect x="1349.249" y="32.619" fill="#FFFFFF" width="8.208" height="138.077"/>
<rect x="1359.083" y="24.466" fill="#FFFFFF" width="17.63" height="146.23"/>
<rect x="1280.905" y="52.283" fill="#FFFFFF" width="19.025" height="118.414"/>
<rect x="1047.765" y="413.42" fill="#FFFFFF" width="28.367" height="140.955"/>
<rect x="1181.012" y="405.267" fill="#FFFFFF" width="14.6" height="149.108"/>
<rect x="1078.249" y="422.533" fill="#FFFFFF" width="17.058" height="131.842"/>
<polygon fill="#FFFFFF" points="1047.351,438.643 1028.193,435.009 1005.115,550.775 1024.273,554.408 "/>
<rect x="1133.81" y="421.094" fill="#FFFFFF" width="9.191" height="133.281"/>
<polygon fill="#FFFFFF" points="1031.724,418.789 1016.679,414.828 979.148,550.448 994.192,554.41 "/>
<rect x="1097.425" y="432.604" fill="#FFFFFF" width="20.5" height="121.771"/>
<rect x="1144.627" y="432.604" fill="#FFFFFF" width="20.5" height="121.771"/>
<rect x="1166.261" y="428.288" fill="#FFFFFF" width="12.633" height="126.087"/>
<rect x="1202.646" y="428.288" fill="#FFFFFF" width="7.225" height="126.087"/>
<rect x="1211.496" y="433.563" fill="#FFFFFF" width="9.683" height="120.812"/>
<rect x="1196.746" y="436.921" fill="#FFFFFF" width="4.274" height="117.454"/>
<rect x="1120.043" y="432.604" fill="#FFFFFF" width="11.65" height="121.771"/>
<rect x="1334.499" y="52.283" fill="#FFFFFF" width="6.241" height="118.414"/>
<rect x="1341.874" y="43.17" fill="#FFFFFF" width="6.241" height="127.526"/>
<rect x="996.196" y="237.887" fill="#FFFFFF" width="16.567" height="124.648"/>
<rect x="1014.388" y="212.469" fill="#FFFFFF" width="14.108" height="150.067"/>
<polygon fill="#FFFFFF" points="1175.983,222.122 1153.79,219.956 1139.387,360.37 1161.58,362.536 "/>
<polygon fill="#FFFFFF" points="1152.608,229.959 1138.658,227.904 1118.128,360.48 1132.078,362.536 "/>
<rect x="1044.381" y="224.459" fill="#FFFFFF" width="8.208" height="138.077"/>
<rect x="1054.215" y="216.305" fill="#FFFFFF" width="10.666" height="146.23"/>
<rect x="976.037" y="244.122" fill="#FFFFFF" width="19.025" height="118.414"/>
<rect x="1174.022" y="244.122" fill="#FFFFFF" width="15.419" height="118.414"/>
<rect x="1190.412" y="237.727" fill="#FFFFFF" width="20.664" height="124.808"/>
<rect x="1212.374" y="231.333" fill="#FFFFFF" width="16.403" height="131.203"/>
<rect x="1230.075" y="221.421" fill="#FFFFFF" width="30.17" height="141.115"/>
<rect x="1325.134" y="229.734" fill="#FFFFFF" width="5.586" height="132.801"/>
<rect x="1331.69" y="215.666" fill="#FFFFFF" width="8.536" height="146.87"/>
<rect x="1361.191" y="208.312" fill="#FFFFFF" width="15.522" height="154.224"/>
<rect x="1341.196" y="223.339" fill="#FFFFFF" width="5.586" height="139.196"/>
<rect x="1347.752" y="218.863" fill="#FFFFFF" width="12.469" height="143.672"/>
<rect x="1260.887" y="239.966" fill="#FFFFFF" width="20.992" height="122.57"/>
<rect x="1290.716" y="239.966" fill="#FFFFFF" width="20.992" height="122.57"/>
<rect x="1282.521" y="232.292" fill="#FFFFFF" width="7.225" height="130.244"/>
<polygon fill="#FFFFFF" points="1324.814,232.392 1317.595,232.116 1312.356,362.259 1319.575,362.536 "/>
<polygon fill="#FFFFFF" points="1135.875,245.105 1117.406,240.648 1087.62,358.079 1106.089,362.536 "/>
<polygon fill="#FFFFFF" points="1115.106,248.103 1096.72,243.332 1065.508,357.764 1083.893,362.536 "/>
<rect x="1029.631" y="244.122" fill="#FFFFFF" width="6.241" height="118.414"/>
<rect x="1037.006" y="235.01" fill="#FFFFFF" width="6.241" height="127.526"/>
<polygon fill="#FFFFFF" points="1338.759,630.448 1319.601,626.814 1296.523,742.579 1315.681,746.213 "/>
<polygon fill="#FFFFFF" points="1323.132,610.594 1308.087,606.632 1270.556,742.253 1285.601,746.214 "/>
<rect x="1372.793" y="599.344" fill="#FFFFFF" width="3.92" height="146.87"/>
<rect x="1339.359" y="591.99" fill="#FFFFFF" width="12.469" height="154.224"/>
<rect x="1366.237" y="607.017" fill="#FFFFFF" width="5.586" height="139.196"/>
<rect x="1352.798" y="602.541" fill="#FFFFFF" width="12.469" height="143.672"/>
<rect x="1066.015" y="616.337" fill="#FFFFFF" width="21.484" height="129.877"/>
<rect x="1219.422" y="616.337" fill="#FFFFFF" width="21.484" height="129.877"/>
<rect x="1088.633" y="621.133" fill="#FFFFFF" width="15.092" height="125.081"/>
<rect x="996.196" y="613.939" fill="#FFFFFF" width="16.567" height="132.275"/>
<rect x="1014.388" y="588.521" fill="#FFFFFF" width="14.108" height="157.694"/>
<rect x="1104.859" y="588.521" fill="#FFFFFF" width="11.158" height="157.694"/>
<rect x="1156.977" y="588.521" fill="#FFFFFF" width="11.158" height="157.694"/>
<rect x="1169.761" y="595.715" fill="#FFFFFF" width="7.225" height="150.5"/>
<rect x="1044.381" y="600.51" fill="#FFFFFF" width="8.208" height="145.704"/>
<rect x="1054.215" y="592.357" fill="#FFFFFF" width="10.666" height="153.857"/>
<rect x="1118.134" y="595.235" fill="#FFFFFF" width="18.042" height="150.98"/>
<rect x="1137.802" y="600.51" fill="#FFFFFF" width="18.042" height="145.704"/>
<rect x="1178.12" y="600.51" fill="#FFFFFF" width="9.191" height="145.704"/>
<rect x="1189.429" y="592.837" fill="#FFFFFF" width="9.191" height="153.378"/>
<rect x="1200.246" y="602.429" fill="#FFFFFF" width="5.75" height="143.786"/>
<rect x="1209.242" y="602.373" transform="matrix(0.9989 -0.046 0.046 0.9989 -29.746 56.4971)" fill="#FFFFFF" width="5.749" height="143.785"/>
<rect x="976.037" y="620.174" fill="#FFFFFF" width="19.025" height="126.04"/>
<rect x="1029.631" y="620.174" fill="#FFFFFF" width="6.241" height="126.04"/>
<rect x="1037.006" y="611.062" fill="#FFFFFF" width="6.241" height="135.153"/>
<rect x="1241.547" y="611.062" fill="#FFFFFF" width="6.241" height="135.153"/>
<rect x="1115.07" y="48.446" fill="#FFFFFF" width="11.426" height="122.25"/>
<rect x="1061.011" y="51.634" fill="#FFFFFF" width="4.889" height="119.062"/>
<rect x="1099.984" y="67.821" fill="#FFFFFF" width="13.94" height="102.875"/>
<rect x="1073.583" y="48.691" fill="#FFFFFF" width="25.004" height="122.005"/>
<rect x="1143.986" y="58.747" fill="#FFFFFF" width="6.649" height="111.95"/>
<polygon fill="#FFFFFF" points="1176.89,68.648 1151.207,70.567 1159.072,170.696 1184.755,168.777 "/>
<rect x="1288.553" y="406.373" fill="#FFFFFF" width="16.455" height="148.002"/>
<rect x="1271.928" y="428.936" fill="#FFFFFF" width="15.7" height="125.439"/>
<rect x="1244.27" y="428.936" fill="#FFFFFF" width="11.426" height="125.439"/>
<rect x="1231.698" y="423.295" fill="#FFFFFF" width="11.426" height="131.08"/>
<rect x="1221.179" y="432.615" fill="#FFFFFF" width="9.121" height="121.76"/>
<rect x="1257.596" y="432.125" fill="#FFFFFF" width="13.186" height="122.25"/>
<rect x="1311.937" y="426.239" fill="#FFFFFF" width="6.146" height="128.136"/>
<rect x="1360.213" y="432.125" fill="#FFFFFF" width="16.5" height="122.25"/>
<rect x="1306.154" y="435.313" fill="#FFFFFF" width="4.889" height="119.062"/>
<rect x="1345.127" y="451.5" fill="#FFFFFF" width="13.94" height="102.875"/>
<rect x="1318.726" y="432.37" fill="#FFFFFF" width="25.004" height="122.005"/>
<polygon fill="#FFFFFF" points="1133.196,822.288 1114.038,818.655 1090.96,934.42 1110.118,938.054 "/>
<polygon fill="#FFFFFF" points="1117.569,802.434 1102.524,798.473 1064.992,934.094 1080.037,938.055 "/>
<polygon fill="#FFFFFF" points="1331.473,797.64 1353.665,795.475 1368.068,935.888 1345.876,938.054 "/>
<rect x="1318.014" y="819.64" fill="#FFFFFF" width="15.419" height="118.414"/>
<rect x="1296.379" y="813.246" fill="#FFFFFF" width="20.664" height="124.808"/>
<rect x="1278.679" y="806.851" fill="#FFFFFF" width="16.403" height="131.203"/>
<rect x="1247.211" y="796.939" fill="#FFFFFF" width="30.17" height="141.115"/>
<rect x="1176.736" y="805.252" fill="#FFFFFF" width="5.586" height="132.801"/>
<rect x="1167.23" y="791.184" fill="#FFFFFF" width="8.536" height="146.87"/>
<rect x="1133.795" y="783.83" fill="#FFFFFF" width="12.469" height="154.224"/>
<rect x="1160.674" y="798.858" fill="#FFFFFF" width="5.586" height="139.196"/>
<rect x="1147.235" y="794.381" fill="#FFFFFF" width="12.469" height="143.672"/>
<rect x="1225.577" y="815.484" fill="#FFFFFF" width="20.992" height="122.57"/>
<rect x="1195.748" y="815.484" fill="#FFFFFF" width="20.992" height="122.57"/>
<rect x="1217.71" y="807.81" fill="#FFFFFF" width="7.225" height="130.244"/>
<polygon fill="#FFFFFF" points="1182.642,807.911 1189.861,807.634 1195.1,937.777 1187.881,938.054 "/>
<rect x="1018.974" y="805.78" fill="#FFFFFF" width="16.567" height="132.275"/>
<rect x="1003.24" y="780.361" fill="#FFFFFF" width="14.108" height="157.694"/>
<rect x="979.148" y="792.351" fill="#FFFFFF" width="8.208" height="145.704"/>
<rect x="1036.675" y="812.015" fill="#FFFFFF" width="19.025" height="126.04"/>
<rect x="995.865" y="812.015" fill="#FFFFFF" width="6.241" height="126.04"/>
<rect x="988.49" y="802.902" fill="#FFFFFF" width="6.241" height="135.153"/>
<rect x="1611.544" y="31.523" fill="#FFFFFF" width="29.278" height="139.173"/>
<rect x="1444.087" y="22.694" fill="#FFFFFF" width="16.455" height="148.002"/>
<rect x="1528.318" y="31.523" fill="#FFFFFF" width="15.7" height="139.173"/>
<rect x="1427.462" y="45.258" fill="#FFFFFF" width="15.7" height="125.439"/>
<rect x="1399.803" y="45.258" fill="#FFFFFF" width="11.426" height="125.439"/>
<rect x="1387.232" y="39.617" fill="#FFFFFF" width="11.426" height="131.08"/>
<rect x="1376.713" y="48.936" fill="#FFFFFF" width="9.121" height="121.76"/>
<rect x="1413.13" y="48.446" fill="#FFFFFF" width="13.186" height="122.25"/>
<rect x="1467.471" y="42.56" fill="#FFFFFF" width="6.146" height="128.136"/>
<rect x="1588.161" y="48.446" fill="#FFFFFF" width="21.484" height="122.25"/>
<rect x="1771.56" y="48.446" fill="#FFFFFF" width="21.484" height="122.25"/>
<rect x="1924.966" y="48.446" fill="#FFFFFF" width="21.484" height="122.25"/>
<rect x="1794.177" y="53.242" fill="#FFFFFF" width="15.092" height="117.454"/>
<rect x="1701.74" y="46.048" fill="#FFFFFF" width="16.567" height="124.648"/>
<rect x="1719.933" y="20.629" fill="#FFFFFF" width="14.108" height="150.067"/>
<rect x="1810.403" y="20.629" fill="#FFFFFF" width="11.158" height="150.067"/>
<rect x="1862.522" y="20.629" fill="#FFFFFF" width="11.158" height="150.067"/>
<rect x="1875.305" y="27.823" fill="#FFFFFF" width="7.225" height="142.873"/>
<rect x="1749.926" y="32.619" fill="#FFFFFF" width="8.208" height="138.077"/>
<rect x="1759.759" y="24.466" fill="#FFFFFF" width="10.666" height="146.23"/>
<rect x="1823.678" y="27.343" fill="#FFFFFF" width="18.042" height="143.353"/>
<rect x="1843.346" y="32.619" fill="#FFFFFF" width="18.042" height="138.077"/>
<rect x="1883.664" y="32.619" fill="#FFFFFF" width="9.191" height="138.077"/>
<rect x="1894.973" y="24.946" fill="#FFFFFF" width="9.191" height="145.751"/>
<polygon fill="#FFFFFF" points="1774.936,246.77 1794.094,243.136 1817.172,358.902 1798.014,362.536 "/>
<polygon fill="#FFFFFF" points="1790.563,226.916 1805.608,222.955 1843.139,358.576 1828.095,362.537 "/>
<rect x="1905.79" y="34.537" fill="#FFFFFF" width="5.75" height="136.159"/>
<polygon fill="#FFFFFF" points="1917.24,34.425 1911.497,34.689 1918.082,170.696 1923.825,170.432 "/>
<rect x="1681.581" y="52.283" fill="#FFFFFF" width="19.025" height="118.414"/>
<rect x="1955.45" y="48.925" fill="#FFFFFF" width="19.025" height="121.771"/>
<rect x="1976.593" y="46.048" fill="#FFFFFF" width="20.5" height="124.648"/>
<rect x="1448.441" y="413.42" fill="#FFFFFF" width="28.367" height="140.955"/>
<rect x="1581.688" y="405.267" fill="#FFFFFF" width="14.6" height="149.108"/>
<rect x="1478.926" y="422.533" fill="#FFFFFF" width="17.058" height="131.842"/>
<polygon fill="#FFFFFF" points="1448.027,438.643 1428.869,435.009 1405.791,550.775 1424.949,554.408 "/>
<rect x="1534.486" y="421.094" fill="#FFFFFF" width="9.191" height="133.281"/>
<polygon fill="#FFFFFF" points="1432.4,418.789 1417.355,414.828 1379.824,550.448 1394.869,554.41 "/>
<rect x="1498.101" y="432.604" fill="#FFFFFF" width="20.5" height="121.771"/>
<rect x="1545.303" y="432.604" fill="#FFFFFF" width="20.5" height="121.771"/>
<rect x="1566.937" y="428.288" fill="#FFFFFF" width="12.633" height="126.087"/>
<rect x="1603.322" y="428.288" fill="#FFFFFF" width="7.225" height="126.087"/>
<rect x="1612.172" y="433.563" fill="#FFFFFF" width="9.683" height="120.812"/>
<rect x="1597.422" y="436.921" fill="#FFFFFF" width="4.274" height="117.454"/>
<rect x="1520.719" y="432.604" fill="#FFFFFF" width="11.65" height="121.771"/>
<rect x="1735.175" y="52.283" fill="#FFFFFF" width="6.241" height="118.414"/>
<rect x="1742.55" y="43.17" fill="#FFFFFF" width="6.241" height="127.526"/>
<rect x="1396.872" y="237.887" fill="#FFFFFF" width="16.567" height="124.648"/>
<rect x="1415.065" y="212.469" fill="#FFFFFF" width="14.108" height="150.067"/>
<polygon fill="#FFFFFF" points="1576.659,222.122 1554.467,219.956 1540.064,360.37 1562.256,362.536 "/>
<polygon fill="#FFFFFF" points="1553.285,229.959 1539.335,227.904 1518.805,360.48 1532.755,362.536 "/>
<rect x="1445.057" y="224.459" fill="#FFFFFF" width="8.208" height="138.077"/>
<rect x="1454.891" y="216.305" fill="#FFFFFF" width="10.666" height="146.23"/>
<rect x="1376.713" y="244.122" fill="#FFFFFF" width="19.025" height="118.414"/>
<rect x="1574.699" y="244.122" fill="#FFFFFF" width="15.419" height="118.414"/>
<rect x="1591.088" y="237.727" fill="#FFFFFF" width="20.664" height="124.808"/>
<rect x="1613.05" y="231.333" fill="#FFFFFF" width="16.403" height="131.203"/>
<rect x="1630.751" y="221.421" fill="#FFFFFF" width="30.17" height="141.115"/>
<rect x="1725.81" y="229.734" fill="#FFFFFF" width="5.586" height="132.801"/>
<rect x="1732.366" y="215.666" fill="#FFFFFF" width="8.536" height="146.87"/>
<rect x="1761.867" y="208.312" fill="#FFFFFF" width="12.469" height="154.224"/>
<rect x="1741.872" y="223.339" fill="#FFFFFF" width="5.586" height="139.196"/>
<rect x="1748.428" y="218.863" fill="#FFFFFF" width="12.469" height="143.672"/>
<rect x="1661.563" y="239.966" fill="#FFFFFF" width="20.992" height="122.57"/>
<rect x="1691.392" y="239.966" fill="#FFFFFF" width="20.992" height="122.57"/>
<rect x="1683.198" y="232.292" fill="#FFFFFF" width="7.225" height="130.244"/>
<polygon fill="#FFFFFF" points="1725.49,232.392 1718.271,232.116 1713.032,362.259 1720.251,362.536 "/>
<polygon fill="#FFFFFF" points="1536.551,245.105 1518.083,240.648 1488.297,358.079 1506.765,362.536 "/>
<polygon fill="#FFFFFF" points="1515.782,248.103 1497.397,243.332 1466.184,357.764 1484.569,362.536 "/>
<rect x="1430.307" y="244.122" fill="#FFFFFF" width="6.241" height="118.414"/>
<rect x="1437.682" y="235.01" fill="#FFFFFF" width="6.241" height="127.526"/>
<rect x="1947.092" y="43.17" fill="#FFFFFF" width="6.241" height="127.526"/>
<rect x="1940.653" y="623.964" fill="#FFFFFF" width="21.484" height="122.25"/>
<rect x="1994.246" y="608.137" fill="#FFFFFF" width="5.754" height="138.077"/>
<rect x="1982.938" y="600.464" fill="#FFFFFF" width="9.191" height="145.751"/>
<rect x="1975.562" y="610.056" fill="#FFFFFF" width="5.75" height="136.159"/>
<polygon fill="#FFFFFF" points="1969.862,609.943 1975.605,610.207 1969.02,746.214 1963.276,745.95 "/>
<rect x="1912.626" y="624.444" fill="#FFFFFF" width="19.025" height="121.771"/>
<rect x="1869.358" y="628.76" fill="#FFFFFF" width="19.025" height="117.454"/>
<rect x="1890.009" y="621.566" fill="#FFFFFF" width="20.5" height="124.648"/>
<rect x="1933.769" y="618.689" fill="#FFFFFF" width="6.241" height="127.526"/>
<rect x="1942.41" y="232.66" fill="#FFFFFF" width="21.484" height="129.877"/>
<rect x="1965.028" y="237.456" fill="#FFFFFF" width="15.092" height="125.081"/>
<rect x="1872.591" y="230.262" fill="#FFFFFF" width="16.567" height="132.275"/>
<rect x="1890.783" y="204.843" fill="#FFFFFF" width="14.108" height="157.694"/>
<rect x="1981.254" y="204.843" fill="#FFFFFF" width="11.158" height="157.694"/>
<rect x="1920.776" y="216.833" fill="#FFFFFF" width="8.208" height="145.704"/>
<rect x="1930.61" y="208.68" fill="#FFFFFF" width="10.666" height="153.857"/>
<rect x="1852.432" y="236.496" fill="#FFFFFF" width="19.025" height="126.04"/>
<rect x="1906.026" y="236.496" fill="#FFFFFF" width="6.241" height="126.04"/>
<rect x="1913.401" y="227.384" fill="#FFFFFF" width="6.241" height="135.153"/>
<polygon fill="#FFFFFF" points="2000,413.962 1977.808,411.796 1963.405,552.209 1985.597,554.375 "/>
<polygon fill="#FFFFFF" points="1976.626,421.798 1962.676,419.743 1942.146,552.32 1956.096,554.375 "/>
<polygon fill="#FFFFFF" points="1959.892,436.944 1941.424,432.487 1911.638,549.918 1930.106,554.375 "/>
<polygon fill="#FFFFFF" points="1939.123,439.942 1920.738,435.171 1889.525,549.604 1907.911,554.375 "/>
<polygon fill="#FFFFFF" points="1739.436,630.448 1720.278,626.814 1697.199,742.579 1716.357,746.213 "/>
<polygon fill="#FFFFFF" points="1723.808,610.594 1708.764,606.632 1671.232,742.253 1686.277,746.214 "/>
<rect x="1782.975" y="613.412" fill="#FFFFFF" width="5.586" height="132.801"/>
<rect x="1773.47" y="599.344" fill="#FFFFFF" width="8.536" height="146.87"/>
<rect x="1740.035" y="591.99" fill="#FFFFFF" width="12.469" height="154.224"/>
<rect x="1766.914" y="607.017" fill="#FFFFFF" width="5.586" height="139.196"/>
<rect x="1753.474" y="602.541" fill="#FFFFFF" width="12.469" height="143.672"/>
<polygon fill="#FFFFFF" points="1788.882,616.07 1796.101,615.793 1801.339,745.937 1794.12,746.213 "/>
<rect x="1466.692" y="616.337" fill="#FFFFFF" width="21.484" height="129.877"/>
<rect x="1620.098" y="616.337" fill="#FFFFFF" width="21.484" height="129.877"/>
<rect x="1489.309" y="621.133" fill="#FFFFFF" width="15.092" height="125.081"/>
<rect x="1396.872" y="613.939" fill="#FFFFFF" width="16.567" height="132.275"/>
<rect x="1415.065" y="588.521" fill="#FFFFFF" width="14.108" height="157.694"/>
<rect x="1505.535" y="588.521" fill="#FFFFFF" width="11.158" height="157.694"/>
<rect x="1557.654" y="588.521" fill="#FFFFFF" width="11.158" height="157.694"/>
<rect x="1570.438" y="595.715" fill="#FFFFFF" width="7.225" height="150.5"/>
<rect x="1445.057" y="600.51" fill="#FFFFFF" width="8.208" height="145.704"/>
<rect x="1454.891" y="592.357" fill="#FFFFFF" width="10.666" height="153.857"/>
<rect x="1518.81" y="595.235" fill="#FFFFFF" width="18.042" height="150.98"/>
<rect x="1538.478" y="600.51" fill="#FFFFFF" width="18.042" height="145.704"/>
<rect x="1578.796" y="600.51" fill="#FFFFFF" width="9.191" height="145.704"/>
<rect x="1590.105" y="592.837" fill="#FFFFFF" width="9.191" height="153.378"/>
<rect x="1600.922" y="602.429" fill="#FFFFFF" width="5.75" height="143.786"/>
<rect x="1609.918" y="602.373" transform="matrix(0.9989 -0.046 0.046 0.9989 -29.3215 74.9366)" fill="#FFFFFF" width="5.749" height="143.785"/>
<rect x="1376.713" y="620.174" fill="#FFFFFF" width="19.025" height="126.04"/>
<rect x="1847.678" y="616.817" fill="#FFFFFF" width="19.025" height="129.398"/>
<rect x="1804.41" y="621.133" fill="#FFFFFF" width="19.025" height="125.081"/>
<rect x="1825.06" y="613.939" fill="#FFFFFF" width="20.5" height="132.275"/>
<rect x="1430.307" y="620.174" fill="#FFFFFF" width="6.241" height="126.04"/>
<rect x="1437.682" y="611.062" fill="#FFFFFF" width="6.241" height="135.153"/>
<rect x="1642.224" y="611.062" fill="#FFFFFF" width="6.241" height="135.153"/>
<rect x="1515.747" y="48.446" fill="#FFFFFF" width="11.426" height="122.25"/>
<rect x="1461.688" y="51.634" fill="#FFFFFF" width="4.889" height="119.062"/>
<rect x="1500.66" y="67.821" fill="#FFFFFF" width="13.94" height="102.875"/>
<rect x="1474.26" y="48.691" fill="#FFFFFF" width="25.004" height="122.005"/>
<rect x="1544.662" y="58.747" fill="#FFFFFF" width="6.649" height="111.95"/>
<polygon fill="#FFFFFF" points="1577.566,68.648 1551.884,70.567 1559.748,170.696 1585.431,168.777 "/>
<rect x="1856.687" y="415.202" fill="#FFFFFF" width="29.278" height="139.173"/>
<rect x="1689.229" y="406.373" fill="#FFFFFF" width="16.455" height="148.002"/>
<rect x="1773.461" y="415.202" fill="#FFFFFF" width="15.7" height="139.173"/>
<rect x="1672.604" y="428.936" fill="#FFFFFF" width="15.7" height="125.439"/>
<rect x="1644.946" y="428.936" fill="#FFFFFF" width="11.426" height="125.439"/>
<rect x="1632.374" y="423.295" fill="#FFFFFF" width="11.426" height="131.08"/>
<rect x="1621.856" y="432.615" fill="#FFFFFF" width="9.121" height="121.76"/>
<rect x="1658.272" y="432.125" fill="#FFFFFF" width="13.186" height="122.25"/>
<rect x="1712.613" y="426.239" fill="#FFFFFF" width="6.146" height="128.136"/>
<rect x="1833.303" y="432.125" fill="#FFFFFF" width="21.484" height="122.25"/>
<rect x="1760.889" y="432.125" fill="#FFFFFF" width="11.426" height="122.25"/>
<rect x="1706.83" y="435.313" fill="#FFFFFF" width="4.889" height="119.062"/>
<rect x="1745.803" y="451.5" fill="#FFFFFF" width="13.94" height="102.875"/>
<rect x="1719.402" y="432.37" fill="#FFFFFF" width="25.004" height="122.005"/>
<rect x="1789.805" y="442.425" fill="#FFFFFF" width="6.649" height="111.95"/>
<polygon fill="#FFFFFF" points="1822.709,452.327 1797.026,454.246 1804.891,554.375 1830.573,552.456 "/>
<polygon fill="#FFFFFF" points="1533.872,822.288 1514.714,818.655 1491.636,934.42 1510.794,938.054 "/>
<polygon fill="#FFFFFF" points="1518.245,802.434 1503.2,798.473 1465.669,934.094 1480.713,938.055 "/>
<polygon fill="#FFFFFF" points="1732.149,797.64 1754.341,795.475 1768.744,935.888 1746.552,938.054 "/>
<polygon fill="#FFFFFF" points="1755.523,805.477 1769.473,803.422 1790.003,935.999 1776.053,938.054 "/>
<rect x="1718.69" y="819.64" fill="#FFFFFF" width="15.419" height="118.414"/>
<rect x="1697.056" y="813.246" fill="#FFFFFF" width="20.664" height="124.808"/>
<rect x="1679.355" y="806.851" fill="#FFFFFF" width="16.403" height="131.203"/>
<rect x="1647.887" y="796.939" fill="#FFFFFF" width="30.17" height="141.115"/>
<rect x="1577.412" y="805.252" fill="#FFFFFF" width="5.586" height="132.801"/>
<rect x="1567.906" y="791.184" fill="#FFFFFF" width="8.536" height="146.87"/>
<rect x="1534.471" y="783.83" fill="#FFFFFF" width="12.469" height="154.224"/>
<rect x="1561.35" y="798.858" fill="#FFFFFF" width="5.586" height="139.196"/>
<rect x="1547.911" y="794.381" fill="#FFFFFF" width="12.469" height="143.672"/>
<rect x="1626.253" y="815.484" fill="#FFFFFF" width="20.992" height="122.57"/>
<rect x="1596.424" y="815.484" fill="#FFFFFF" width="20.992" height="122.57"/>
<rect x="1618.386" y="807.81" fill="#FFFFFF" width="7.225" height="130.244"/>
<polygon fill="#FFFFFF" points="1583.318,807.911 1590.537,807.634 1595.776,937.777 1588.557,938.054 "/>
<polygon fill="#FFFFFF" points="1772.257,820.623 1790.725,816.166 1820.511,933.597 1802.043,938.054 "/>
<polygon fill="#FFFFFF" points="1793.026,823.621 1811.411,818.85 1842.624,933.283 1824.239,938.054 "/>
<rect x="1419.65" y="805.78" fill="#FFFFFF" width="16.567" height="132.275"/>
<rect x="1403.916" y="780.361" fill="#FFFFFF" width="14.108" height="157.694"/>
<rect x="1379.824" y="792.351" fill="#FFFFFF" width="8.208" height="145.704"/>
<rect x="1437.351" y="812.015" fill="#FFFFFF" width="19.025" height="126.04"/>
<rect x="1396.541" y="812.015" fill="#FFFFFF" width="6.241" height="126.04"/>
<rect x="1389.166" y="802.902" fill="#FFFFFF" width="6.241" height="135.153"/>
<rect x="1848.576" y="798.881" fill="#FFFFFF" width="29.278" height="139.173"/>
<rect x="1945.379" y="798.881" fill="#FFFFFF" width="15.7" height="139.173"/>
<rect x="1879.754" y="815.804" fill="#FFFFFF" width="21.484" height="122.25"/>
<rect x="1962.225" y="815.804" fill="#FFFFFF" width="11.426" height="122.25"/>
<rect x="1974.797" y="835.179" fill="#FFFFFF" width="13.94" height="102.875"/>
<rect x="1938.087" y="826.104" fill="#FFFFFF" width="6.649" height="111.95"/>
<polygon fill="#FFFFFF" points="1911.832,836.005 1937.515,837.925 1929.65,938.054 1903.967,936.135 "/>
</svg>
